<svg display="none"
xmlns="http://www.w3.org/2000/svg">

  <symbol id="address" viewBox="0 0 32 23">
  <g>
  <path d="M31.9173 14.3394L30.2976 11.861C29.5823 10.7659 28.3671 10.1119 27.0461 10.1119H22.8571V7.70135C22.8571 6.22953 21.6602 5.03266 20.1884 5.03266H12.3465C11.9065 2.73454 9.88363 0.990967 7.45908 0.990967C4.71366 0.990967 2.48035 3.22456 2.48035 5.96969C2.48035 7.69582 3.3642 9.2185 4.70232 10.1119H0.508045C0.227283 10.1119 0 10.3392 0 10.62C0 10.9008 0.227283 11.128 0.508045 11.128H5.58733V12.1438H3.55544C3.27497 12.1438 3.04769 12.3711 3.04769 12.6519C3.04769 12.9326 3.27497 13.1596 3.55544 13.1596H5.58733V14.1754H0.508045C0.227283 14.1754 0 14.4027 0 14.6835C0 14.9642 0.227283 15.1915 0.508045 15.1915H5.58733V17.4411C4.69186 17.8361 4.06349 18.7295 4.06349 19.7694V20.2708C4.06349 20.5516 4.29106 20.7789 4.57153 20.7789H9.07651C9.36541 22.0216 10.4797 22.9517 11.8094 22.9517C13.1394 22.9517 14.2535 22.0216 14.5424 20.7789H24.3147C24.6038 22.0216 25.7182 22.9517 27.0476 22.9517C28.377 22.9517 29.4916 22.0216 29.7805 20.7789H31.4921C31.7729 20.7789 31.9999 20.5516 31.9999 20.2708V14.6172C31.9999 14.5184 31.9711 14.4216 31.9173 14.3394ZM3.49615 5.96969C3.49615 3.78463 5.27402 2.00677 7.45908 2.00677C9.64443 2.00677 11.422 3.78463 11.422 5.96969C11.422 8.15475 9.64443 9.93262 7.45908 9.93262C5.27402 9.93262 3.49615 8.15475 3.49615 5.96969ZM6.60313 15.1915H7.61893C7.89969 15.1915 8.12698 14.9642 8.12698 14.6835C8.12698 14.4027 7.89969 14.1754 7.61893 14.1754H6.60313V13.1596H10.1589C10.4393 13.1596 10.6666 12.9326 10.6666 12.6519C10.6666 12.3711 10.4393 12.1438 10.1589 12.1438H6.60313V11.128H13.2063C13.4867 11.128 13.7143 10.9008 13.7143 10.62C13.7143 10.3392 13.4867 10.1119 13.2063 10.1119H10.2158C11.5333 9.23217 12.4073 7.74174 12.434 6.04846H20.1887C21.0999 6.04846 21.8413 6.79018 21.8413 7.70135V17.2231H6.60953C6.60749 17.2231 6.60546 17.2237 6.60313 17.2237V15.1915ZM21.8413 19.7628H14.5886C14.5086 19.1786 14.2494 18.6519 13.8666 18.2389H21.8413V19.7628ZM6.60953 18.2389H9.75225C9.36977 18.6519 9.11022 19.1786 9.03059 19.7628H5.07929C5.08277 18.9222 5.76811 18.2389 6.60953 18.2389ZM11.8094 21.9359C10.8215 21.9359 10.0173 21.132 10.0173 20.1438C10.0173 19.1559 10.8215 18.3517 11.8094 18.3517C12.7976 18.3517 13.6015 19.1559 13.6015 20.1438C13.6015 21.132 12.7976 21.9359 11.8094 21.9359ZM27.0476 21.9359C26.0597 21.9359 25.2555 21.132 25.2555 20.1438C25.2555 19.1559 26.0597 18.3517 27.0476 18.3517C28.0358 18.3517 28.8397 19.1559 28.8397 20.1438C28.8397 21.132 28.0358 21.9359 27.0476 21.9359ZM30.9841 19.7628H29.8267C29.6398 18.3947 28.4662 17.3359 27.0476 17.3359C25.629 17.3359 24.4556 18.3947 24.2684 19.7628H22.8571V11.128H27.0461C28.0224 11.128 28.9202 11.6096 29.4474 12.4165L30.9841 14.7683V19.7628Z"/>
  <path d="M27.8785 20.1439C27.8785 20.6029 27.5065 20.9749 27.0476 20.9749C26.5887 20.9749 26.2166 20.6029 26.2166 20.1439C26.2166 19.685 26.5887 19.313 27.0476 19.313C27.5065 19.313 27.8785 19.685 27.8785 20.1439Z"/>
  <path d="M12.6404 20.1439C12.6404 20.6029 12.2684 20.9749 11.8094 20.9749C11.3508 20.9749 10.9788 20.6029 10.9788 20.1439C10.9788 19.685 11.3508 19.313 11.8094 19.313C12.2684 19.313 12.6404 19.685 12.6404 20.1439Z"/>
  <path d="M8.12698 5.96977V3.7475C8.12698 3.46674 7.8997 3.23975 7.61894 3.23975C7.33847 3.23975 7.11118 3.46674 7.11118 3.7475V5.8041L6.07446 7.22622C5.90908 7.45292 5.95878 7.77031 6.18548 7.93539C6.27617 8.00166 6.3808 8.03334 6.48456 8.03334C6.64121 8.03334 6.79584 7.96097 6.89524 7.82437L8.02961 6.26884C8.09268 6.18223 8.12698 6.0776 8.12698 5.96977Z"/>
  <path d="M26.8764 11.6357H25.9048C25.624 11.6357 25.3967 11.863 25.3967 12.1438V15.6992C25.3967 15.98 25.624 16.2073 25.9048 16.2073H29.3233C29.6419 16.2073 29.927 16.0425 30.0868 15.7673C30.2467 15.492 30.247 15.1624 30.0895 14.8878L28.9033 12.8117C28.4892 12.0868 27.7123 11.6357 26.8764 11.6357ZM26.4128 15.1915V12.6518H26.8764C27.3487 12.6518 27.7873 12.9062 28.0212 13.316L29.0928 15.1915H26.4128Z"/>
  </g>
  </symbol>


  <symbol id="phone" viewBox="0 0 23 23">
  <g>
  <path
    d="M21.4627 16.5887L18.2687 13.3933C17.8397 12.9665 17.2653 12.7314 16.6515 12.7314C16.0128 12.7314 15.4097 12.9829 14.9537 13.4392L13.7104 14.6822C12.7443 14.1452 11.4602 13.4066 10.127 12.0735C8.79538 10.7414 8.05671 9.46105 7.51697 8.48972L8.76146 7.24613C9.68672 6.31895 9.70565 4.83146 8.80379 3.93043L5.6104 0.736948C5.18265 0.308006 4.60826 0.0717773 3.99291 0.0717773C3.36842 0.0717773 2.77767 0.312212 2.32432 0.749838C2.05006 0.970709 0.673731 2.18568 0.160774 4.69131C-0.55742 8.19845 1.09271 11.5728 5.85641 16.3385C11.1779 21.6583 15.7208 22.0718 16.9864 22.0718C17.2499 22.0718 17.4089 22.0555 17.4513 22.0506C19.9331 21.7597 20.8217 20.6575 21.4705 19.8527C22.3112 18.8097 22.3082 17.4373 21.4627 16.5887ZM20.4029 18.992C19.793 19.7484 19.2171 20.4628 17.2918 20.6885C17.2908 20.6886 17.1854 20.7004 16.9864 20.7004C15.8541 20.7004 11.7748 20.3159 6.82611 15.3688C2.43311 10.974 0.891219 7.96012 1.50419 4.9663C1.9516 2.78082 3.13942 1.8519 3.18558 1.81662L3.22654 1.78636L3.26247 1.75034C3.46076 1.55223 3.72012 1.44307 3.99282 1.44307C4.24112 1.44307 4.47076 1.53614 4.64007 1.706L7.83419 4.90021C8.2017 5.26735 8.18214 5.88516 7.79113 6.27699L6.38373 7.68321L6.3606 7.70744C5.99382 8.11142 6.03697 8.65738 6.23901 9.01291C6.82199 10.065 7.62054 11.5058 9.15713 13.0429C10.6886 14.5743 12.1274 15.3723 13.1765 15.9541C13.2815 16.0131 13.4984 16.112 13.7698 16.112C14.0903 16.112 14.3846 15.9764 14.6025 15.7291L15.9233 14.4086C16.1205 14.2113 16.379 14.1026 16.6514 14.1026C16.9002 14.1026 17.131 14.196 17.3 14.364L20.4919 17.5573C20.8974 17.9642 20.73 18.5863 20.4029 18.992Z"/>
    <path
    d="M13.3881 3.43156C14.5663 3.56714 15.9535 4.28076 16.9221 5.24954C17.8999 6.22727 18.6152 7.62855 18.7444 8.81948C18.7825 9.17081 19.0796 9.43117 19.4252 9.43117C19.4499 9.43117 19.4749 9.4298 19.5 9.42715C19.8765 9.38628 20.1485 9.04803 20.1077 8.67156C19.9443 7.16615 19.0952 5.48339 17.8918 4.27994C16.6997 3.08773 15.0341 2.24073 13.5449 2.06931C13.1689 2.02571 12.8287 2.29594 12.7854 2.67204C12.7421 3.04815 13.0118 3.38823 13.3881 3.43156Z"/>
    <path
    d="M12.7476 6.30376C13.3847 6.37717 14.2666 6.84981 14.8443 7.42749C15.4269 8.0102 15.9004 8.90045 15.9702 9.5445C16.0083 9.89592 16.3054 10.1563 16.651 10.1563C16.6757 10.1563 16.7006 10.1549 16.7257 10.1523C17.1021 10.1114 17.3743 9.77314 17.3334 9.39667C17.2142 8.29708 16.4842 7.12827 15.8138 6.4578C15.1493 5.79327 13.992 5.06676 12.9043 4.94142C12.5278 4.89763 12.1881 5.16796 12.1447 5.54406C12.1015 5.92025 12.3714 6.26042 12.7476 6.30376Z"/>
  </g>
  </symbol>


  <symbol id="user" viewBox="0 0 25 32">
  <g>
  <path d="M22.6785 19.9427C21.6076 18.3799 20.213 17.0955 18.5934 16.1643C20.4901 14.467 21.686 12.0018 21.686 9.26225C21.6861 4.15505 17.5311 0 12.4238 0C7.31656 0 3.1615 4.15505 3.1615 9.26225C3.1615 12.0018 4.35743 14.4669 6.25416 16.1643C4.63447 17.0956 3.23995 18.3799 2.16902 19.9427C0.750061 22.0134 0 24.4315 0 26.9359V32H24.8476V26.9359C24.8477 24.4315 24.0976 22.0133 22.6785 19.9427ZM5.10099 9.26225C5.10099 5.22444 8.38604 1.93939 12.4239 1.93939C16.4617 1.93939 19.7467 5.22444 19.7467 9.26225C19.7467 13.3002 16.4617 16.5852 12.4239 16.5852C8.38604 16.5852 5.10099 13.3002 5.10099 9.26225ZM1.93939 30.0606V26.9359C1.93939 22.8273 4.31922 19.1418 8.04034 17.4197C9.34604 18.1242 10.839 18.5245 12.4238 18.5245C14.0085 18.5245 15.5015 18.1241 16.8072 17.4197C20.5284 19.1417 22.9081 22.8273 22.9081 26.9359V30.0606H1.93939Z"/>
  </g>
  </symbol>


  <symbol id="heart" viewBox="0 0 32 29">
  <g>
  <path
  d="M29.6653 2.77712C28.0869 0.98625 25.8974 0 23.5 0C20.1283 0 17.9936 2.01375 16.7966 3.70312C16.486 4.1415 16.2218 4.58106 16 4.99469C15.7782 4.58106 15.5141 4.1415 15.2034 3.70312C14.0064 2.01375 11.8717 0 8.5 0C6.10262 0 3.91306 0.986313 2.33469 2.77719C0.829188 4.48556 0 6.77356 0 9.21969C0 11.8824 1.03956 14.3589 3.27156 17.0134C5.26638 19.3859 8.13619 21.8314 11.4594 24.6632C12.6977 25.7185 13.9782 26.8098 15.3416 28.0026L15.3825 28.0384C15.5592 28.1932 15.7796 28.2705 16 28.2705C16.2204 28.2705 16.4408 28.1931 16.6175 28.0384L16.6584 28.0026C18.0217 26.8098 19.3023 25.7186 20.5408 24.6631C23.8638 21.8315 26.7336 19.386 28.7284 17.0134C30.9604 14.3589 32 11.8824 32 9.21969C32 6.77356 31.1708 4.48556 29.6653 2.77712ZM19.3246 23.2361C18.2571 24.1458 17.1584 25.0819 16 26.089C14.8416 25.0821 13.7429 24.1458 12.6753 23.236C6.17156 17.6939 1.875 14.0326 1.875 9.21969C1.875 7.23031 2.53781 5.38256 3.74137 4.01688C4.95875 2.63569 6.64869 1.875 8.5 1.875C11.0706 1.875 12.7323 3.45863 13.6735 4.78713C14.5178 5.97863 14.9584 7.17975 15.1086 7.64081C15.2343 8.02675 15.5941 8.28794 16 8.28794C16.4059 8.28794 16.7657 8.02675 16.8914 7.64081C17.0416 7.17975 17.4822 5.97863 18.3265 4.78706C19.2677 3.45863 20.9294 1.875 23.5 1.875C25.3513 1.875 27.0413 2.63569 28.2586 4.01688C29.4622 5.38256 30.125 7.23031 30.125 9.21969C30.125 14.0326 25.8284 17.6939 19.3246 23.2361Z"/>
  </g>
  </symbol>


  <symbol id="cart" viewBox="0 0 32 31">
  <g>
  <path d="M31.7978 4.03875C31.6226 3.81981 31.3574 3.69238 31.0769 3.69238H6.5095L5.8225 0.7155C5.72581 0.296688 5.35287 0 4.92306 0H0.923063C0.413312 0 0 0.413312 0 0.923125C0 1.43294 0.413312 1.84619 0.923063 1.84619H4.18875L8.852 22.0537C8.94863 22.4726 9.32162 22.7692 9.75144 22.7692H28.2461C28.7559 22.7692 29.1692 22.3559 29.1692 21.8462C29.1692 21.3364 28.7559 20.9231 28.2461 20.9231H10.4858L9.77581 17.8462H28.3078C28.7395 17.8462 29.1136 17.5469 29.2083 17.1257L31.9775 4.81806C32.0391 4.54444 31.9729 4.25775 31.7978 4.03875ZM27.5693 16H9.34975L6.93556 5.5385H29.9231L27.5693 16Z"/>
  <path d="M13.5384 24C11.6722 24 10.1538 25.5183 10.1538 27.3846C10.1538 29.2509 11.6721 30.7692 13.5384 30.7692C15.4047 30.7692 16.9231 29.2509 16.9231 27.3846C16.9231 25.5183 15.4047 24 13.5384 24ZM13.5384 28.9231C12.6901 28.9231 12 28.2329 12 27.3846C12 26.5363 12.6901 25.8462 13.5384 25.8462C14.3867 25.8462 15.0769 26.5363 15.0769 27.3846C15.0769 28.2329 14.3867 28.9231 13.5384 28.9231Z"/>
  <path d="M24.6153 24C22.7491 24 21.2307 25.5183 21.2307 27.3846C21.2307 29.2509 22.749 30.7692 24.6153 30.7692C26.4816 30.7692 28 29.2509 28 27.3846C28 25.5183 26.4817 24 24.6153 24ZM24.6153 28.9231C23.767 28.9231 23.0769 28.233 23.0769 27.3847C23.0769 26.5364 23.767 25.8462 24.6153 25.8462C25.4637 25.8462 26.1538 26.5364 26.1538 27.3847C26.1538 28.233 25.4637 28.9231 24.6153 28.9231Z"/>
  </g>
  </symbol>

  <symbol id="moto" viewBox="0 0 50 44">
  <g>
<path d="M48.5118 31.3922C49.2823 31.3503 49.8947 30.7133 49.8947 29.9314C49.8947 25.7162 46.5111 22.4142 42.1917 22.4142H40.7643L39.0195 14.1328C40.7031 13.4013 41.884 11.7215 41.884 9.76999C41.884 7.1487 39.754 5.01608 37.1358 5.01608H30.3863C29.5783 5.01608 28.9232 5.67194 28.9232 6.48093V8.30515H25.3268C24.5188 8.30515 23.8637 8.961 23.8637 9.76999C23.8637 10.579 24.5188 11.2348 25.3268 11.2348H28.9232V13.0591C28.9232 13.868 29.5783 14.5239 30.3863 14.5239H31.0359C29.8246 15.9564 29.0919 17.8069 29.0919 19.8265V28.1624C29.0919 28.2051 29.0572 28.2398 29.0146 28.2398H23.1044C23.0703 28.2398 23.0398 28.2171 23.0302 28.1843L21.4369 22.7935C22.721 22.4501 23.6698 21.2757 23.6698 19.8833C23.6698 16.5769 20.9832 13.8871 17.681 13.8871H4.49863C2.01816 13.887 0 15.9076 0 18.3912C0 20.6617 1.68682 22.5441 3.87148 22.8508C1.55391 24.9263 0.0924805 27.9416 0.0924805 31.2925V35.853C0.0924805 36.662 0.747559 37.3178 1.55557 37.3178H2.82148C3.50293 40.7202 6.50957 43.2915 10.1054 43.2915C13.7012 43.2915 16.7078 40.7202 17.3893 37.3178H35.2867C35.9682 40.7202 38.9748 43.2915 42.5706 43.2915C46.6671 43.2915 49.9999 39.9546 49.9999 35.853C50 34.1807 49.4457 32.6359 48.5118 31.3922ZM46.729 28.4666H43.4354C43.1515 28.4335 42.8633 28.4145 42.5707 28.4145C42.0463 28.4145 41.5348 28.47 41.0408 28.5739V25.3439H42.1918C44.3346 25.3439 46.1062 26.6337 46.729 28.4666ZM31.8493 7.94567H37.1358C38.1405 7.94567 38.9579 8.76403 38.9579 9.76989C38.9579 10.7758 38.1405 11.5941 37.1358 11.5941H31.8493V7.94567ZM23.1045 31.1694H29.0146C30.6708 31.1694 32.0181 29.8205 32.0181 28.1623V19.8264C32.0181 17.3087 33.7843 15.196 36.1414 14.6654L38.1147 24.0316V29.9049C36.6829 30.983 35.6518 32.5663 35.2868 34.3881H20.7409C20.0576 29.1324 15.7176 25.2003 10.3006 25.2003C7.88506 25.2003 5.7165 25.9893 4.00557 27.3458C5.41885 24.7001 8.20518 22.8955 11.4056 22.8955H18.4159L20.2247 29.0156C20.5993 30.2838 21.7836 31.1694 23.1045 31.1694ZM3.1375 34.3881C3.39316 32.8297 4.05889 31.4239 5.07695 30.3346C6.40576 28.9129 8.26084 28.1299 10.3004 28.1299C14.074 28.1299 17.1226 30.7818 17.7771 34.388H3.1375V34.3881ZM4.49863 19.9658C3.63154 19.9658 2.92607 19.2594 2.92607 18.3912C2.92607 17.5229 3.63154 16.8166 4.49863 16.8166H17.681C19.3698 16.8166 20.7437 18.1922 20.7437 19.8831C20.7313 19.9433 20.6348 19.9832 20.4552 19.9656C19.238 19.9656 19.5859 19.9656 19.3324 19.9656C17.5843 19.9658 4.50713 19.9658 4.49863 19.9658ZM10.1054 40.3617C8.13437 40.3617 6.45625 39.0868 5.84746 37.3177H14.3633C13.7545 39.0868 12.0764 40.3617 10.1054 40.3617ZM42.5707 40.3617C40.0876 40.3617 38.0675 38.339 38.0675 35.8529C38.0675 33.3668 40.0877 31.3442 42.5707 31.3442C45.0538 31.3442 47.0739 33.3668 47.0739 35.8529C47.0739 38.339 45.0537 40.3617 42.5707 40.3617Z" fill="#63A60E"/>
<path d="M42.5707 37.3275C43.3841 37.3275 44.0435 36.6674 44.0435 35.853C44.0435 35.0387 43.3841 34.3785 42.5707 34.3785C41.7573 34.3785 41.0979 35.0387 41.0979 35.853C41.0979 36.6674 41.7573 37.3275 42.5707 37.3275Z" fill="#63A60E"/>
<path d="M1.52443 9.64089H14.6463C15.4543 9.64089 16.1094 8.98503 16.1094 8.17605C16.1094 7.36707 15.4543 6.71121 14.6463 6.71121H1.52443C0.716418 6.71121 0.0613403 7.36707 0.0613403 8.17605C0.0613403 8.98503 0.716418 9.64089 1.52443 9.64089Z" fill="#63A60E"/>
<path d="M6.38496 3.63827H19.6199C20.4279 3.63827 21.083 2.98241 21.083 2.17343C21.083 1.36445 20.4279 0.708588 19.6199 0.708588H6.38496C5.57695 0.708588 4.92188 1.36445 4.92188 2.17343C4.92188 2.98241 5.57695 3.63827 6.38496 3.63827Z" fill="#63A60E"/>
  </g>
</symbol>


<symbol id="cashback" viewBox="0 0 50 50">
<g>
<path d="M33.6914 50H11.7188C5.25703 50 0 44.743 0 38.2812V11.7188C0 5.25703 5.25703 0 11.7188 0H38.2812C44.743 0 50 5.25703 50 11.7188V29.0039C49.8969 31.5953 46.196 31.5934 46.0938 29.0039V11.7188C46.0938 7.41094 42.5891 3.90625 38.2812 3.90625H11.7188C7.41094 3.90625 3.90625 7.41094 3.90625 11.7188V38.2812C3.90625 42.5891 7.41094 46.0938 11.7188 46.0938H33.6914C36.2828 46.1969 36.2809 49.8978 33.6914 50ZM31.9336 10.7422C31.9336 9.66348 31.0592 8.78906 29.9805 8.78906H20.0195C17.4281 8.89219 17.4301 12.5931 20.0195 12.6953H29.9805C31.0592 12.6953 31.9336 11.8209 31.9336 10.7422ZM31.3477 42.8711C30.849 42.8711 30.3503 42.6814 29.9691 42.3016L26.7183 39.0627C25.6101 37.958 25.0001 36.4892 25 34.9266C25 33.364 25.6101 31.8951 26.7178 30.7907C26.7229 30.7855 29.9841 27.6055 29.9841 27.6055C30.7564 26.8522 31.993 26.8681 32.746 27.6402C33.499 28.4125 33.4835 29.649 32.7112 30.4021L29.4696 33.5631C28.7211 34.2857 28.7238 35.5764 29.4757 36.2957L32.7262 39.5342C33.9614 40.7582 33.0636 42.8814 31.3477 42.8711ZM47.5287 47.4901C52.8413 42.1565 49.0062 32.8926 41.4551 32.9102H34.4727C31.8813 33.0133 31.8832 36.7142 34.4727 36.8164H41.4551C44.0128 36.8164 46.0938 38.8974 46.0938 41.4551C46.0938 44.0128 44.0348 46.0938 41.5039 46.0938C38.9143 46.1957 38.9129 49.8974 41.5039 50C43.7871 50 45.9268 49.1086 47.5287 47.4901Z" fill="#63A60E"/>
</g>
</symbol>


<symbol id="privat24" viewBox="0 0 50 50">
<g>
<path d="M48.8663 17.5358C48.6252 16.7633 47.8031 16.3334 47.0314 16.5745C46.933 16.605 46.8407 16.6451 46.7545 16.6931C46.1609 17.0238 45.8595 17.7353 46.0701 18.4093C46.7339 20.5341 47.0703 22.7516 47.0703 25C47.0703 37.1696 37.1696 47.0703 25 47.0703C12.8304 47.0703 2.92969 37.1696 2.92969 25C2.92969 12.8304 12.8304 2.92969 25 2.92969C30.669 2.92969 36.0832 5.10788 40.1646 8.96683L37.0239 8.18405C36.2389 7.98874 35.4439 8.46634 35.2482 9.2514C35.0525 10.0365 35.5301 10.8311 36.3152 11.0268L44.7544 13.1302C44.7586 13.1313 44.7632 13.1321 44.7674 13.1332C44.8807 13.1603 44.9951 13.1737 45.1088 13.1737C45.4967 13.1737 45.8748 13.0196 46.1533 12.7361C46.5172 12.3661 46.6579 11.8317 46.524 11.3308L44.2822 2.94342C44.0731 2.16179 43.2701 1.69792 42.4889 1.90659C41.7072 2.11563 41.243 2.91824 41.452 3.69987L42.3298 6.98395C37.69 2.5219 31.4926 0 25 0C18.3224 0 12.0441 2.60048 7.32231 7.32231C2.60048 12.0441 0 18.322 0 25C0 31.6776 2.60048 37.9559 7.32231 42.6777C12.0441 47.3995 18.3224 50 25 50C31.6776 50 37.9559 47.3995 42.6777 42.6777C47.3995 37.9559 50 31.678 50 25C50 22.4548 49.6185 19.9436 48.8663 17.5358Z" fill="#63A60E"/>
<path d="M28.3367 26.1925L28.2139 26.1921V18.7317C28.2139 18.0988 27.8076 17.5373 27.2064 17.3397C26.6048 17.1425 25.9449 17.3535 25.5695 17.8635L19.0121 26.7731C18.6848 27.2175 18.6352 27.8084 18.8839 28.3009C19.1322 28.7937 19.6369 29.105 20.1889 29.1062L25.2842 29.1161V31.3568C25.2842 32.1659 25.9403 32.8217 26.749 32.8217C27.5581 32.8217 28.2139 32.1659 28.2139 31.3568V29.1218H28.331H28.334C29.1416 29.1218 29.797 28.468 29.7989 27.66C29.8004 26.8509 29.1458 26.194 28.3367 26.1925ZM23.0846 26.1822L25.2842 23.193V26.1864L23.0846 26.1822Z" fill="#63A60E"/>
<path d="M17.5968 29.8771H13.2591C13.9473 29.0779 14.7552 28.2944 15.509 27.5631C17.4152 25.7141 19.0617 24.1177 19.0617 22.2618C19.0617 19.4744 16.7931 17.207 14.0045 17.207C11.9678 17.207 10.1402 18.4189 9.34868 20.295C9.03434 21.0404 9.38377 21.8994 10.1292 22.2138C10.8742 22.5289 11.7336 22.179 12.048 21.4337C12.3802 20.6455 13.1485 20.1367 14.0045 20.1367C15.1775 20.1367 16.1316 21.09 16.1316 22.2618C16.1316 22.2935 16.1144 22.5937 15.517 23.3345C15.0013 23.9742 14.257 24.696 13.4693 25.4601C11.8801 27.0016 10.0792 28.7483 9.18922 30.7461C8.98704 31.1993 9.02824 31.7238 9.2987 32.1396C9.56878 32.5558 10.0311 32.8068 10.527 32.8068H17.5964C18.4055 32.8068 19.0613 32.151 19.0613 31.3419C19.0613 30.5332 18.4059 29.8771 17.5968 29.8771Z" fill="#63A60E"/>
<path d="M36.6352 22.2691C36.145 22.2691 35.6739 22.3606 35.2344 22.5273V18.6226C35.2344 17.8135 34.5787 17.1577 33.7696 17.1577C32.9605 17.1577 32.3047 17.8135 32.3047 18.6226V31.3774C32.3047 32.1865 32.9605 32.8423 33.7696 32.8423C34.5787 32.8423 35.2344 32.1865 35.2344 31.3774V27.2755C35.2527 27.1828 35.263 27.087 35.263 26.989C35.263 26.0185 35.8913 25.1987 36.6352 25.1987C37.3794 25.1987 38.0077 26.0185 38.0077 26.989V31.3774C38.0077 32.1865 38.6635 32.8423 39.4726 32.8423C40.2817 32.8423 40.9374 32.1865 40.9374 31.3774V26.989C40.9374 24.3866 39.0076 22.2691 36.6352 22.2691Z" fill="#63A60E"/>
</g>
</symbol>


<symbol id="facebook" viewBox="0 0 17 32">
<g>
  <path
  d="M13.3293 5.31333H16.2507V0.225333C15.7467 0.156 14.0133 0 11.9947 0C7.78266 0 4.89733 2.64933 4.89733 7.51867V12H0.249329V17.688H4.89733V32H10.596V17.6893H15.056L15.764 12.0013H10.5947V8.08267C10.596 6.43867 11.0387 5.31333 13.3293 5.31333Z"/>
</g>
</symbol>


<symbol id="youtube" viewBox="0 0 32 24">
<g>
<path
  d="M31.292 3.90543L31.332 4.16677C30.9453 2.79477 29.9013 1.7361 28.5747 1.35077L28.5467 1.3441C26.052 0.666766 16.0133 0.666766 16.0133 0.666766C16.0133 0.666766 6 0.653433 3.48 1.3441C2.128 1.7361 1.08266 2.79477 0.702662 4.13877L0.695996 4.16677C-0.236004 9.03477 -0.242671 14.8841 0.737329 20.0961L0.695996 19.8321C1.08266 21.2041 2.12666 22.2628 3.45333 22.6481L3.48133 22.6548C5.97333 23.3334 16.0147 23.3334 16.0147 23.3334C16.0147 23.3334 26.0267 23.3334 28.548 22.6548C29.9013 22.2628 30.9467 21.2041 31.3267 19.8601L31.3333 19.8321C31.7573 17.5681 32 14.9628 32 12.3014C32 12.2041 32 12.1054 31.9987 12.0068C32 11.9161 32 11.8081 32 11.7001C32 9.03743 31.7573 6.4321 31.292 3.90543ZM12.8107 16.8681V7.1441L21.1653 12.0134L12.8107 16.8681Z"/>
</g>
</symbol>

<symbol id="telegram" viewBox="0 0 32 32">
<g>
<path d="M12.556 20.2415L12.0267 27.6868C12.784 27.6868 13.112 27.3615 13.5053 26.9708L17.056 23.5775L24.4133 28.9655C25.7626 29.7175 26.7133 29.3215 27.0773 27.7241L31.9066 5.0948L31.908 5.09347C32.336 3.0988 31.1866 2.3188 29.872 2.80813L1.48533 13.6761C-0.452007 14.4281 -0.422674 15.5081 1.15599 15.9975L8.41332 18.2548L25.2706 7.7068C26.064 7.18147 26.7853 7.47213 26.192 7.99747L12.556 20.2415Z"/>
</g>
</symbol>


<symbol id="instagram" viewBox="0 0 32 32">
<g>
<path
d="M16.0053 7.78406C11.468 7.78406 7.79468 11.4614 7.79468 15.9947C7.79468 20.5321 11.472 24.2054 16.0053 24.2054C20.5427 24.2054 24.216 20.5281 24.216 15.9947C24.216 11.4574 20.5387 7.78406 16.0053 7.78406ZM16.0053 21.3241C13.06 21.3241 10.676 18.9387 10.676 15.9947C10.676 13.0507 13.0613 10.6654 16.0053 10.6654C18.9493 10.6654 21.3347 13.0507 21.3347 15.9947C21.336 18.9387 18.9507 21.3241 16.0053 21.3241Z"/>
<path
d="M22.5973 0.101248C19.6533 -0.0360854 12.3613 -0.0294187 9.41467 0.101248C6.82533 0.222581 4.54133 0.847914 2.7 2.68925C-0.377336 5.76658 0.0159978 9.91325 0.0159978 15.9946C0.0159978 22.2186 -0.330669 26.2692 2.7 29.2999C5.78933 32.3879 9.996 31.9839 16.0053 31.9839C22.1707 31.9839 24.2987 31.9879 26.4787 31.1439C29.4427 29.9932 31.68 27.3439 31.8987 22.5852C32.0373 19.6399 32.0293 12.3492 31.8987 9.40258C31.6347 3.78525 28.62 0.378581 22.5973 0.101248ZM27.2573 27.2639C25.24 29.2812 22.4413 29.1012 15.9667 29.1012C9.3 29.1012 6.62666 29.1999 4.676 27.2439C2.42933 25.0079 2.836 21.4172 2.836 15.9732C2.836 8.60658 2.08 3.30125 9.47333 2.92258C11.172 2.86258 11.672 2.84258 15.948 2.84258L16.008 2.88258C23.1133 2.88258 28.688 2.13858 29.0227 9.53058C29.0987 11.2172 29.116 11.7239 29.116 15.9932C29.1147 22.5826 29.24 25.2719 27.2573 27.2639Z"/>
<path
d="M24.5413 9.37859C25.601 9.37859 26.46 8.51957 26.46 7.45992C26.46 6.40027 25.601 5.54126 24.5413 5.54126C23.4817 5.54126 22.6227 6.40027 22.6227 7.45992C22.6227 8.51957 23.4817 9.37859 24.5413 9.37859Z"/>
</g>
</symbol>


<symbol id="visa" viewBox="0 0 93 29">
<g>
<path d="M37.1088 0.473907L32.3987 28.0548H39.9317L44.6456 0.473907H37.1088Z"/>
<path
d="M26.0828 0.504701L18.7047 19.3141L17.9181 16.474C16.463 13.052 12.3323 8.13751 7.48273 5.04031L14.2291 28.0413L22.2001 28.0277L34.0634 0.498901L26.0828 0.504701Z"/>
<path
d="M15.0582 2.47862C14.6204 0.798551 13.3513 0.297818 11.7761 0.237885H0.096875L0 0.786951C9.08881 2.98709 15.1028 8.28829 17.5983 14.6625L15.0582 2.47862Z"/>
<path
d="M59.9133 5.76133C62.3778 5.72267 64.1642 6.26013 65.5514 6.81693L66.2315 7.13593L67.2506 1.15806C65.7587 0.599331 63.4202 0 60.5023 0C53.0584 0 47.8117 3.741 47.771 9.10213C47.7225 13.0635 51.5084 15.2753 54.3682 16.5957C57.3035 17.9491 58.2877 18.8094 58.2742 20.0177C58.2509 21.8641 55.9337 22.7109 53.7695 22.7109C50.7528 22.7109 49.1505 22.2952 46.6763 21.2667L45.7056 20.8259L44.6458 26.999C46.4089 27.7704 49.662 28.4335 53.039 28.4683C60.9576 28.4683 66.1036 24.7718 66.1578 19.0433C66.1908 15.9094 64.1816 13.5179 59.828 11.5555C57.193 10.2757 55.581 9.425 55.5965 8.13353C55.5965 6.98707 56.9644 5.76133 59.9133 5.76133Z"/>
<path
d="M86.583 0.504578H80.7628C78.9551 0.504578 77.6105 0.995644 76.8161 2.79365L65.6309 28.0701H73.5417C73.5417 28.0701 74.8321 24.6713 75.1246 23.9269C75.9907 23.9269 83.6768 23.9385 84.7715 23.9385C84.9962 24.9013 85.6898 28.0701 85.6898 28.0701H92.6784L86.583 0.504578ZM77.2927 18.2816C77.9127 16.6982 80.2939 10.5734 80.2939 10.5734C80.2532 10.6488 80.9081 8.97838 81.2975 7.94018L81.8051 10.3182C81.8051 10.3182 83.2486 16.9031 83.5508 18.2816H77.2927Z"/>
</g>
</symbol>


<symbol id="mastercard" viewBox="0 0 49 29">
<g>
<path
d="M33.933 4.62198e-07C30.192 0.00100046 26.782 1.419 24.212 3.748C21.64 1.422 18.232 0.00300072 14.495 0.00300072C14.464 0.00300072 14.432 0.00300072 14.402 0.00300072C6.444 0.0550007 0 6.529 0 14.498C0 22.499 6.494 28.992 14.494 28.992C18.231 28.992 21.639 27.575 24.21 25.247C23.673 24.762 23.187 24.225 22.728 23.663H25.721C25.27 24.216 24.778 24.734 24.249 25.216H24.247C24.235 25.229 24.222 25.237 24.21 25.248C26.783 27.578 30.195 28.998 33.938 28.997C41.943 28.994 48.43 22.502 48.428 14.498C48.428 14.495 48.428 14.493 48.428 14.491C48.429 6.487 41.938 -0.00199954 33.933 4.62198e-07ZM22.894 5.245H25.649C26.055 5.737 26.432 6.255 26.774 6.797H21.859C22.176 6.279 22.524 5.746 22.894 5.245ZM21.003 8.319H27.61C27.845 8.821 28.053 9.34 28.235 9.872H20.22C20.3 9.722 20.58 9.118 21.003 8.319ZM5.917 18.19L6.796 12.648L4.813 18.19H3.75L3.612 12.648L2.673 18.19H1.184L2.418 10.84H4.67L4.749 15.35L6.27 10.84H8.713L7.496 18.19H5.917ZM11.182 18.178L11.233 17.591C11.209 17.594 10.739 18.3 9.65 18.3C9.08 18.3 8.16 17.989 8.16 16.637C8.16 14.918 9.562 14.348 10.897 14.348C11.107 14.348 11.56 14.386 11.56 14.386C11.56 14.386 11.611 14.281 11.611 13.997C11.611 13.53 11.191 13.466 10.616 13.466C9.603 13.466 8.934 13.737 8.934 13.737L9.158 12.407C9.158 12.407 9.97 12.067 11.027 12.067C11.574 12.067 13.147 12.125 13.147 13.928L12.541 18.178H11.182ZM16.925 16.306C16.925 18.357 14.938 18.269 14.591 18.269C13.296 18.269 12.896 18.09 12.859 18.08L13.065 16.73C13.067 16.718 13.715 16.965 14.436 16.965C14.852 16.965 15.392 16.924 15.392 16.427C15.392 15.683 13.46 15.861 13.46 14.094C13.46 12.535 14.618 12.079 15.76 12.079C16.642 12.079 17.184 12.2 17.184 12.2L16.989 13.562C16.989 13.562 16.152 13.493 15.935 13.493C15.386 13.493 15.087 13.613 15.087 13.997C15.086 14.769 16.925 14.391 16.925 16.306ZM19.311 16.844C19.448 16.844 19.603 16.797 19.709 16.797L19.516 18.108C19.361 18.151 18.922 18.307 18.359 18.311C17.64 18.317 17.129 17.915 17.129 17.003C17.129 16.391 18.006 11.348 18.04 11.315H19.583L19.426 12.217H20.196L19.999 13.67H19.182L18.748 16.347C18.715 16.56 18.774 16.844 19.311 16.844ZM22.705 12.047C24.399 12.047 24.906 13.287 24.906 14.304C24.906 14.711 24.702 15.711 24.702 15.711H21.566C21.566 15.711 21.276 16.946 22.933 16.946C23.71 16.946 24.572 16.566 24.572 16.566L24.3 18.053C24.3 18.053 23.802 18.307 22.67 18.307C21.443 18.307 20.004 17.788 20.004 15.608C20.005 13.719 21.153 12.047 22.705 12.047ZM26.792 22.17H21.65C21.337 21.67 21.045 21.157 20.794 20.618H27.637C27.385 21.154 27.103 21.672 26.792 22.17ZM26.447 18.201H24.863L25.826 12.219H27.263L27.125 13.086C27.125 13.086 27.637 12.143 28.328 12.143C28.529 12.143 28.626 12.163 28.626 12.163C28.421 12.581 28.24 12.964 28.052 13.953C26.98 13.573 26.898 15.646 26.447 18.201ZM32.482 18.108C32.482 18.108 31.652 18.32 31.132 18.32C29.29 18.32 28.355 17.049 28.355 15.124C28.355 12.221 30.088 10.675 31.869 10.675C32.674 10.675 33.607 11.053 33.607 11.053L33.355 12.688C33.355 12.688 32.724 12.247 31.939 12.247C30.889 12.247 29.947 13.249 29.947 15.07C29.947 15.967 30.386 16.803 31.482 16.803C32.003 16.803 32.758 16.424 32.758 16.424L32.482 18.108ZM36.197 18.181L36.249 17.59C36.224 17.593 35.754 18.299 34.666 18.299C34.096 18.299 33.176 17.988 33.176 16.636C33.176 14.917 34.578 14.347 35.912 14.347C36.122 14.347 36.576 14.385 36.576 14.385C36.576 14.385 36.628 14.281 36.628 13.997C36.628 13.53 36.208 13.466 35.632 13.466C34.619 13.466 33.951 13.737 33.951 13.737L34.175 12.407C34.175 12.407 34.987 12.067 36.045 12.067C36.591 12.067 38.165 12.125 38.164 13.928L37.558 18.178C37.557 18.181 36.197 18.181 36.197 18.181ZM39.404 18.201H37.82L38.783 12.219H40.221L40.083 13.086C40.083 13.086 40.596 12.143 41.287 12.143C41.488 12.143 41.584 12.163 41.584 12.163C41.38 12.581 41.197 12.964 41.01 13.953C39.937 13.573 39.855 15.646 39.404 18.201ZM44.133 18.185L44.2 17.634C44.2 17.634 43.688 18.28 42.762 18.28C41.479 18.28 40.85 17.041 40.85 15.775C40.85 13.817 42.028 12.11 43.442 12.11C44.352 12.112 44.933 12.915 44.933 12.915L45.267 10.85L46.814 10.847L45.634 18.185H44.133ZM47.185 17.978C47.144 18.052 47.086 18.109 47.012 18.153C46.939 18.194 46.861 18.215 46.779 18.215C46.699 18.215 46.622 18.194 46.548 18.153C46.474 18.109 46.416 18.052 46.375 17.978C46.333 17.903 46.313 17.827 46.313 17.746C46.313 17.664 46.334 17.586 46.375 17.512C46.416 17.438 46.477 17.378 46.55 17.338C46.626 17.297 46.701 17.276 46.779 17.276C46.859 17.276 46.935 17.297 47.009 17.338C47.085 17.379 47.143 17.436 47.185 17.512C47.228 17.587 47.247 17.665 47.247 17.746C47.247 17.827 47.227 17.904 47.185 17.978Z"/>
<path
d="M47.0611 22.4009C47.0511 22.3939 47.0421 22.3829 47.0261 22.3769C47.0101 22.3709 46.985 22.3679 46.946 22.3679H46.8521V22.5179H46.952C46.999 22.5179 47.03 22.5139 47.048 22.4969C47.065 22.4829 47.0731 22.4659 47.0731 22.4419C47.0731 22.4259 47.0691 22.4149 47.0611 22.4009Z"/>
<path
d="M11.0221 15.4949C9.89111 15.4949 9.66211 16.0029 9.66211 16.4259C9.66211 16.6439 9.78711 17.0079 10.2661 17.0079C11.1951 17.0079 11.3881 15.7899 11.3581 15.5309C11.3141 15.5219 11.2861 15.4959 11.0221 15.4949Z"/>
<path
d="M22.711 13.428C21.87 13.428 21.708 14.385 21.708 14.486H23.421C23.421 14.409 23.582 13.428 22.711 13.428Z"/>
<path
d="M43.7089 13.595C43.0299 13.595 42.4929 14.383 42.4939 15.58C42.4939 16.31 42.7539 16.778 43.3099 16.778C44.1459 16.778 44.5489 15.687 44.5489 14.874C44.5489 13.977 44.2639 13.595 43.7089 13.595Z"/>
<path
d="M47.1149 17.552C47.0799 17.49 47.0309 17.442 46.9689 17.407C46.9069 17.372 46.8439 17.355 46.7779 17.355C46.7139 17.355 46.6489 17.373 46.5869 17.407C46.5249 17.439 46.4759 17.489 46.4409 17.552C46.4059 17.615 46.3879 17.682 46.3879 17.747C46.3879 17.814 46.4059 17.88 46.4389 17.941C46.4759 18.003 46.5229 18.05 46.5849 18.087C46.6469 18.121 46.7109 18.141 46.7779 18.141C46.8449 18.141 46.9109 18.121 46.9709 18.087C47.0329 18.052 47.0809 18.004 47.1169 17.941C47.1519 17.879 47.1679 17.814 47.1679 17.747C47.1679 17.681 47.1499 17.615 47.1149 17.552ZM46.8979 18.004L46.8529 17.926C46.8179 17.863 46.7899 17.823 46.7689 17.808C46.7519 17.795 46.7319 17.789 46.7029 17.789H46.6569V18.003H46.5729V17.499H46.7479C46.8069 17.499 46.8509 17.504 46.8759 17.515C46.9009 17.524 46.9229 17.541 46.9399 17.563C46.9569 17.585 46.9629 17.61 46.9629 17.637C46.9629 17.674 46.9489 17.705 46.9229 17.733C46.8969 17.762 46.8609 17.774 46.8189 17.779C46.8389 17.787 46.8519 17.796 46.8619 17.805C46.8829 17.826 46.9069 17.856 46.9359 17.904L46.9979 18.004H46.8979Z"/>
<path
d="M36.039 15.4949C34.908 15.4949 34.679 16.0029 34.679 16.4259C34.679 16.6439 34.803 17.0079 35.283 17.0079C36.212 17.0079 36.404 15.7899 36.375 15.5309C36.33 15.5219 36.302 15.4959 36.039 15.4949Z"/>
<path
d="M46.864 17.6019C46.856 17.5919 46.845 17.5839 46.83 17.5769C46.813 17.5719 46.788 17.5669 46.748 17.5669V17.5679H46.657V17.7199H46.756C46.803 17.7199 46.834 17.7139 46.853 17.6989C46.868 17.6839 46.877 17.6649 46.877 17.6429C46.877 17.6259 46.873 17.6159 46.864 17.6019Z"/>
</g>
</symbol>

</svg>
